<svg xmlns="http://www.w3.org/2000/svg" width="1280" height="360" viewBox="0 0 1280 360" role="img" aria-label="lasder-ca profile banner">
  <defs>
    <linearGradient id="bg" x1="0" y1="0" x2="1" y2="1">
      <stop offset="0%" stop-color="#070707"/>
      <stop offset="54%" stop-color="#11100d"/>
      <stop offset="100%" stop-color="#1a1510"/>
    </linearGradient>
    <radialGradient id="glow" cx="72%" cy="38%" r="55%">
      <stop offset="0%" stop-color="#f0b35a" stop-opacity=".22"/>
      <stop offset="42%" stop-color="#c0843f" stop-opacity=".09"/>
      <stop offset="100%" stop-color="#000000" stop-opacity="0"/>
    </radialGradient>
    <filter id="softShadow" x="-20%" y="-20%" width="140%" height="140%">
      <feDropShadow dx="0" dy="18" stdDeviation="16" flood-color="#000000" flood-opacity=".35"/>
    </filter>
  </defs>

  <rect width="1280" height="360" rx="42" fill="url(#bg)"/>
  <rect width="1280" height="360" rx="42" fill="url(#glow)"/>

  <g opacity=".18">
    <path d="M70 287 C205 195, 290 312, 416 220 S650 188, 770 248 S1000 311, 1195 170" fill="none" stroke="#f3d9a4" stroke-width="2"/>
    <path d="M50 92 C185 153, 318 40, 445 109 S676 173, 808 91 S1030 32, 1210 105" fill="none" stroke="#df9858" stroke-width="1.5"/>
  </g>

  <g transform="translate(88 74)" filter="url(#softShadow)">
    <path d="M98 18c44 0 78 34 78 76 0 59-41 103-86 103-44 0-81-42-81-92C9 55 49 18 98 18Z" fill="#f1c57f"/>
    <path d="M59 60c18-31 57-35 82-11 9 8 16 19 18 31-27-14-69-22-100-20Z" fill="#2a2118" opacity=".26"/>
    <circle cx="67" cy="99" r="11" fill="#17130f"/>
    <circle cx="124" cy="99" r="11" fill="#17130f"/>
    <circle cx="70" cy="95" r="3" fill="#fff6e5"/>
    <circle cx="127" cy="95" r="3" fill="#fff6e5"/>
    <path d="M82 127c10 10 27 10 37 0" fill="none" stroke="#17130f" stroke-width="7" stroke-linecap="round"/>
    <path d="M40 48c-11-26 5-42 30-29" fill="none" stroke="#f1c57f" stroke-width="16" stroke-linecap="round"/>
    <path d="M148 48c12-25-4-42-28-29" fill="none" stroke="#f1c57f" stroke-width="16" stroke-linecap="round"/>
  </g>

  <g transform="translate(328 98)">
    <text x="0" y="0" fill="#fff3df" font-family="ui-sans-serif, system-ui, -apple-system, Segoe UI, sans-serif" font-size="72" font-weight="800" letter-spacing="-2">
      lasder-ca
    </text>
    <text x="2" y="52" fill="#d9c3a4" font-family="ui-sans-serif, system-ui, -apple-system, Segoe UI, sans-serif" font-size="26" font-weight="500">
      building lattee.jp, small tools, dashboards, and security experiments
    </text>
    <g transform="translate(0 94)" font-family="ui-monospace, SFMono-Regular, Menlo, Consolas, monospace" font-size="19" font-weight="600">
      <rect x="0" y="0" width="178" height="42" rx="21" fill="#1d1a16" stroke="#6b573a"/>
      <text x="24" y="27" fill="#f0c987">web tools</text>
      <rect x="196" y="0" width="170" height="42" rx="21" fill="#1d1a16" stroke="#6b573a"/>
      <text x="220" y="27" fill="#f0c987">home lab</text>
      <rect x="384" y="0" width="210" height="42" rx="21" fill="#1d1a16" stroke="#6b573a"/>
      <text x="408" y="27" fill="#f0c987">security poc</text>
    </g>
  </g>

  <g transform="translate(1020 78)" opacity=".72">
    <circle cx="36" cy="34" r="7" fill="#f1c57f"/>
    <circle cx="98" cy="68" r="5" fill="#f1c57f"/>
    <circle cx="150" cy="24" r="4" fill="#f1c57f"/>
    <path d="M36 34 L98 68 L150 24" stroke="#f1c57f" stroke-width="2" fill="none" opacity=".35"/>
    <path d="M16 158h180" stroke="#f1c57f" stroke-width="2" opacity=".24"/>
    <path d="M62 188h94" stroke="#f1c57f" stroke-width="2" opacity=".24"/>
  </g>
</svg>
