<svg xmlns="http://www.w3.org/2000/svg" width="320" height="320" viewBox="0 0 320 320" role="img" aria-label="lattee icon">
  <defs>
    <radialGradient id="bg" cx="50%" cy="42%" r="70%">
      <stop offset="0%" stop-color="#2a2016"/>
      <stop offset="100%" stop-color="#070707"/>
    </radialGradient>
    <filter id="s" x="-20%" y="-20%" width="140%" height="140%">
      <feDropShadow dx="0" dy="14" stdDeviation="12" flood-color="#000" flood-opacity=".35"/>
    </filter>
  </defs>
  <rect width="320" height="320" rx="76" fill="url(#bg)"/>
  <g filter="url(#s)">
    <path d="M161 58c61 0 105 43 105 99 0 79-51 124-106 124-57 0-106-47-106-121C54 102 99 58 161 58Z" fill="#efc27a"/>
    <path d="M92 105c23-44 83-50 120-14 14 14 23 32 25 52-44-24-100-32-145-38Z" fill="#2a2118" opacity=".23"/>
    <circle cx="123" cy="159" r="15" fill="#17130f"/>
    <circle cx="197" cy="159" r="15" fill="#17130f"/>
    <circle cx="128" cy="153" r="4" fill="#fff9ec"/>
    <circle cx="202" cy="153" r="4" fill="#fff9ec"/>
    <path d="M141 202c14 12 34 12 48 0" fill="none" stroke="#17130f" stroke-width="10" stroke-linecap="round"/>
    <path d="M86 99c-20-40 7-65 44-43" fill="none" stroke="#efc27a" stroke-width="24" stroke-linecap="round"/>
    <path d="M236 99c20-40-7-65-44-43" fill="none" stroke="#efc27a" stroke-width="24" stroke-linecap="round"/>
  </g>
</svg>
