<svg xmlns="http://www.w3.org/2000/svg" width="1200" height="260" viewBox="0 0 1200 260" role="img" aria-labelledby="title desc">
  <title id="title">lasder-ca developer profile</title>
  <desc id="desc">Student developer working on security tools, AI agents, and systems.</desc>
  <defs>
    <linearGradient id="bg" x1="0" y1="0" x2="1" y2="1">
      <stop offset="0" stop-color="#0d1117"/>
      <stop offset="1" stop-color="#161b22"/>
    </linearGradient>
    <linearGradient id="line" x1="0" y1="0" x2="1" y2="0">
      <stop offset="0" stop-color="#58a6ff" stop-opacity="0"/>
      <stop offset="0.5" stop-color="#58a6ff"/>
      <stop offset="1" stop-color="#58a6ff" stop-opacity="0"/>
    </linearGradient>
  </defs>

  <rect width="1200" height="260" rx="24" fill="url(#bg)"/>
  <path d="M0 198C190 145 322 224 507 178C688 133 842 202 1200 128V260H0Z" fill="#1f6feb" opacity="0.08"/>
  <path d="M0 207C188 155 324 233 509 187C688 143 847 210 1200 137" fill="none" stroke="url(#line)" stroke-width="2"/>

  <g fill="#30363d">
    <circle cx="80" cy="58" r="4"/><circle cx="1120" cy="54" r="4"/>
    <circle cx="1050" cy="214" r="3"/><circle cx="152" cy="216" r="3"/>
  </g>

  <text x="600" y="105" text-anchor="middle" fill="#f0f6fc"
        font-family="'Noto Sans JP','Noto Sans',system-ui,sans-serif"
        font-size="54" font-weight="700" letter-spacing="1">lasder-ca</text>
  <text x="600" y="151" text-anchor="middle" fill="#8b949e"
        font-family="'Noto Sans JP','Noto Sans',system-ui,sans-serif"
        font-size="20" font-weight="500">Security tools · AI agents · Systems</text>
  <text x="600" y="190" text-anchor="middle" fill="#58a6ff"
        font-family="'Noto Sans JP','Noto Sans',system-ui,sans-serif"
        font-size="16" font-weight="500">build · verify · disclose responsibly</text>
</svg>
